<svg width="657.8px" height="122px" xmlns="http://www.w3.org/2000/svg" viewBox="-78.88124999999997 14 657.7624999999999 122" style="background: rgba(0, 0, 0, 0)" preserveAspectRatio="xMinYMin"><defs><linearGradient id="editing-gradient-gradient" x1="0" x2="1" y1="0.5" y2="0.5" gradientUnits="objectBoundingBox"><stop offset="0" stop-color="#40cdfa"></stop><stop offset="1" stop-color="#c85ad7"></stop></linearGradient></defs><g transform="matrix(1,0,0,1,0,0)"><g transform="matrix(1.3,0,0,1.3,-65.2,147.9)"><path d="M 9.7 -35.1 L -4.3 -35.1 L 3.9 -77.4 L 17.9 -77.4 L 9.7 -35.1 Z M 65.4 -33.9 L 65.4 -33.9 L 65.4 -33.9 Q 57.7 -33.9 57.7 -39.9 L 57.7 -39.9 L 57.7 -39.9 Q 57.7 -42.5 58.8 -47.6 L 58.8 -47.6 L 58.8 -47.6 Q 59.9 -52.7 60.3 -54.7 L 60.3 -54.7 L 60.3 -54.7 Q 61.2 -59.4 61.2 -60.9 L 61.2 -60.9 L 61.2 -60.9 Q 61.2 -64.1 58.8 -64.1 L 58.8 -64.1 L 58.8 -64.1 Q 57.2 -64.1 55.6 -61.9 L 55.6 -61.9 L 55.6 -61.9 Q 54.1 -59.7 53.4 -55.3 L 53.4 -55.3 L 49.4 -35.1 L 36.9 -33.9 L 40.4 -51.3 L 40.4 -51.3 Q 41 -54.1 41.5 -57.4 L 41.5 -57.4 L 41.5 -57.4 Q 42 -60.7 42 -61.2 L 42 -61.2 L 42 -61.2 Q 42 -64.1 39.8 -64.1 L 39.8 -64.1 L 39.8 -64.1 Q 38.4 -64.1 36.8 -62 L 36.8 -62 L 36.8 -62 Q 35.2 -59.8 34.3 -55.3 L 34.3 -55.3 L 30.4 -35.1 L 17.7 -33.9 L 24.5 -67.8 L 34.9 -69.1 L 33.8 -62.6 L 33.8 -62.6 Q 35.5 -66 38.5 -67.6 L 38.5 -67.6 L 38.5 -67.6 Q 41.6 -69.1 46.4 -69.1 L 46.4 -69.1 L 46.4 -69.1 Q 49.2 -69.1 51 -67.7 L 51 -67.7 L 51 -67.7 Q 52.8 -66.4 53.3 -64.2 L 53.3 -64.2 L 53.3 -64.2 Q 54.4 -66.4 57.2 -67.7 L 57.2 -67.7 L 57.2 -67.7 Q 60 -69.1 63.4 -69.1 L 63.4 -69.1 L 63.4 -69.1 Q 66.8 -69.1 68.5 -68.3 L 68.5 -68.3 L 68.5 -68.3 Q 70.2 -67.6 71.2 -66.4 L 71.2 -66.4 L 71.2 -66.4 Q 73 -64.1 73 -60 L 73 -60 L 73 -60 Q 73 -56 71.2 -47.6 L 71.2 -47.6 L 71.2 -47.6 Q 70.4 -43.5 70.4 -42 L 70.4 -42 L 70.4 -42 Q 70.4 -40.5 71.2 -39.6 L 71.2 -39.6 L 71.2 -39.6 Q 72.1 -38.7 73.4 -38.6 L 73.4 -38.6 L 73.4 -38.6 Q 72.7 -36.4 70.5 -35.1 L 70.5 -35.1 L 70.5 -35.1 Q 68.3 -33.9 65.4 -33.9 Z M 81.1 -37.1 L 81.1 -37.1 L 81.1 -37.1 Q 79.6 -38.7 78.9 -41.3 L 78.9 -41.3 L 78.9 -41.3 Q 78.2 -44 78.2 -48.3 L 78.2 -48.3 L 78.2 -48.3 Q 78.2 -52.5 79.7 -56.4 L 79.7 -56.4 L 79.7 -56.4 Q 81.2 -60.4 83.9 -63.2 L 83.9 -63.2 L 83.9 -63.2 Q 89.4 -69.1 98.4 -69.1 L 98.4 -69.1 L 98.4 -69.1 Q 101.7 -69.1 104.1 -68 L 104.1 -68 L 115 -69.1 L 110.3 -44.1 L 110.3 -44.1 Q 110.1 -43.3 110.1 -41.9 L 110.1 -41.9 L 110.1 -41.9 Q 110.1 -40.5 111 -39.6 L 111 -39.6 L 111 -39.6 Q 111.8 -38.7 113.1 -38.6 L 113.1 -38.6 L 113.1 -38.6 Q 112.5 -36.4 110.1 -35.1 L 110.1 -35.1 L 110.1 -35.1 Q 107.8 -33.9 105.2 -33.9 L 105.2 -33.9 L 105.2 -33.9 Q 102.5 -33.9 100.8 -34.8 L 100.8 -34.8 L 100.8 -34.8 Q 99 -35.8 98.5 -37.5 L 98.5 -37.5 L 98.5 -37.5 Q 97.5 -35.9 95.3 -34.9 L 95.3 -34.9 L 95.3 -34.9 Q 93.1 -33.9 90.2 -33.9 L 90.2 -33.9 L 90.2 -33.9 Q 87.3 -33.9 84.9 -34.6 L 84.9 -34.6 L 84.9 -34.6 Q 82.6 -35.4 81.1 -37.1 Z M 94.6 -63 L 94.6 -63 L 94.6 -63 Q 93.8 -61.9 93.2 -59.9 L 93.2 -59.9 L 93.2 -59.9 Q 92.6 -58 91.5 -52.8 L 91.5 -52.8 L 91.5 -52.8 Q 90.4 -47.6 90.4 -43.8 L 90.4 -43.8 L 90.4 -43.8 Q 90.4 -40.1 91 -39 L 91 -39 L 91 -39 Q 91.6 -38 92.6 -38 L 92.6 -38 L 92.6 -38 Q 94.7 -38 96.2 -39.9 L 96.2 -39.9 L 96.2 -39.9 Q 97.7 -41.9 98.3 -45.3 L 98.3 -45.3 L 101.6 -64.1 L 101.6 -64.1 Q 100.3 -65.2 98.7 -65.2 L 98.7 -65.2 L 98.7 -65.2 Q 97.2 -65.2 96.2 -64.7 L 96.2 -64.7 L 96.2 -64.7 Q 95.3 -64.2 94.6 -63 Z M 122.8 -61.9 L 122.8 -61.9 L 122.8 -61.9 Q 124.9 -65 128.2 -67 L 128.2 -67 L 128.2 -67 Q 131.5 -69.1 135.6 -69.1 L 135.6 -69.1 L 135.6 -69.1 Q 139.6 -69.1 141.5 -67.8 L 141.5 -67.8 L 154.1 -69.1 L 149.7 -44.5 L 149.7 -44.5 Q 147.5 -31.9 142.7 -27 L 142.7 -27 L 142.7 -27 Q 138.2 -22.3 129.4 -22.3 L 129.4 -22.3 L 129.4 -22.3 Q 122.6 -22.3 118.8 -24.4 L 118.8 -24.4 L 118.8 -24.4 Q 115 -26.6 115 -30.1 L 115 -30.1 L 115 -30.1 Q 115 -32.7 116.9 -34.2 L 116.9 -34.2 L 116.9 -34.2 Q 118.9 -35.7 122 -35.7 L 122 -35.7 L 122 -35.7 Q 124.7 -35.7 126.7 -34.5 L 126.7 -34.5 L 126.7 -34.5 Q 128 -33.9 128.5 -33 L 128.5 -33 L 128.5 -33 Q 127.1 -31.7 127.1 -29.6 L 127.1 -29.6 L 127.1 -29.6 Q 127.1 -26.8 129.6 -26.8 L 129.6 -26.8 L 129.6 -26.8 Q 133.9 -26.8 136.3 -36.9 L 136.3 -36.9 L 136.3 -36.9 Q 137 -39.7 137.6 -42.4 L 137.6 -42.4 L 137.6 -42.4 Q 134.7 -38.9 128.2 -38.9 L 128.2 -38.9 L 128.2 -38.9 Q 123.7 -38.9 121 -41.1 L 121 -41.1 L 121 -41.1 Q 118.4 -43.3 118.4 -48.4 L 118.4 -48.4 L 118.4 -48.4 Q 118.4 -51.6 119.5 -55.2 L 119.5 -55.2 L 119.5 -55.2 Q 120.6 -58.8 122.8 -61.9 Z M 131.1 -48.2 L 131.1 -48.2 L 131.1 -48.2 Q 131.1 -43.8 133.3 -43.8 L 133.3 -43.8 L 133.3 -43.8 Q 134.9 -43.8 136.3 -45.5 L 136.3 -45.5 L 136.3 -45.5 Q 137.5 -46.8 137.9 -48.8 L 137.9 -48.8 L 141.2 -65.3 L 141.2 -65.3 Q 140.9 -65.3 140.6 -65.5 L 140.6 -65.5 L 140.6 -65.5 Q 139.9 -65.7 139.1 -65.7 L 139.1 -65.7 L 139.1 -65.7 Q 135.2 -65.7 132.9 -59.3 L 132.9 -59.3 L 132.9 -59.3 Q 131.1 -54.3 131.1 -48.2 Z M 182.5 -46 L 182.5 -46 L 182.5 -46 Q 184.1 -44.9 184.1 -42.5 L 184.1 -42.5 L 184.1 -42.5 Q 184.1 -40.1 182.9 -38.5 L 182.9 -38.5 L 182.9 -38.5 Q 181.6 -37 179.7 -36 L 179.7 -36 L 179.7 -36 Q 175.6 -33.9 171.2 -33.9 L 171.2 -33.9 L 171.2 -33.9 Q 166.7 -33.9 164.1 -34.8 L 164.1 -34.8 L 164.1 -34.8 Q 161.6 -35.8 159.8 -37.6 L 159.8 -37.6 L 159.8 -37.6 Q 156.4 -41 156.4 -47.2 L 156.4 -47.2 L 156.4 -47.2 Q 156.4 -56.8 161.7 -62.7 L 161.7 -62.7 L 161.7 -62.7 Q 167.3 -69.1 177.1 -69.1 L 177.1 -69.1 L 177.1 -69.1 Q 183.2 -69.1 186.2 -66.5 L 186.2 -66.5 L 186.2 -66.5 Q 188.4 -64.6 188.4 -61.4 L 188.4 -61.4 L 188.4 -61.4 Q 188.4 -50.2 169 -50.2 L 169 -50.2 L 169 -50.2 Q 168.7 -48.5 168.7 -47.1 L 168.7 -47.1 L 168.7 -47.1 Q 168.7 -44.2 170 -43 L 170 -43 L 170 -43 Q 171.3 -41.9 173.8 -41.9 L 173.8 -41.9 L 173.8 -41.9 Q 176.2 -41.9 178.8 -43 L 178.8 -43 L 178.8 -43 Q 181.4 -44.2 182.5 -46 Z M 169.4 -52.9 L 169.4 -52.9 L 169.4 -52.9 Q 174 -52.9 176.6 -55.7 L 176.6 -55.7 L 176.6 -55.7 Q 179.2 -58.4 179.2 -62.7 L 179.2 -62.7 L 179.2 -62.7 Q 179.2 -64.2 178.7 -65 L 178.7 -65 L 178.7 -65 Q 178.1 -65.8 177 -65.8 L 177 -65.8 L 177 -65.8 Q 176 -65.8 175 -65.4 L 175 -65.4 L 175 -65.4 Q 174.1 -65 173.1 -63.6 L 173.1 -63.6 L 173.1 -63.6 Q 170.8 -60.4 169.4 -52.9 Z M 209.7 -57.6 L 209.7 -57.6 L 209.7 -57.6 Q 210.6 -60 210.6 -62 L 210.6 -62 L 210.6 -62 Q 210.6 -65.8 207.6 -65.8 L 207.6 -65.8 L 207.6 -65.8 Q 206 -65.8 204.7 -64.4 L 204.7 -64.4 L 204.7 -64.4 Q 203.3 -62.9 203.3 -61.1 L 203.3 -61.1 L 203.3 -61.1 Q 203.3 -59.8 204.4 -58.8 L 204.4 -58.8 L 204.4 -58.8 Q 205.8 -57.4 209.6 -55.1 L 209.6 -55.1 L 209.6 -55.1 Q 213.4 -52.8 214.8 -50.9 L 214.8 -50.9 L 214.8 -50.9 Q 216.3 -49 216.3 -46.4 L 216.3 -46.4 L 216.3 -46.4 Q 216.3 -43.8 215 -41.5 L 215 -41.5 L 215 -41.5 Q 213.8 -39.1 211.5 -37.4 L 211.5 -37.4 L 211.5 -37.4 Q 206.7 -33.9 199.1 -33.9 L 199.1 -33.9 L 199.1 -33.9 Q 194.9 -33.9 191.7 -36 L 191.7 -36 L 191.7 -36 Q 188.5 -38.1 188.5 -40.6 L 188.5 -40.6 L 188.5 -40.6 Q 188.5 -43.1 190.3 -44.6 L 190.3 -44.6 L 190.3 -44.6 Q 192.1 -46.1 194.8 -46.1 L 194.8 -46.1 L 194.8 -46.1 Q 197.5 -46.1 199.2 -45.1 L 199.2 -45.1 L 199.2 -45.1 Q 198.4 -42.9 198.4 -41.5 L 198.4 -41.5 L 198.4 -41.5 Q 198.4 -37.3 201.9 -37.3 L 201.9 -37.3 L 201.9 -37.3 Q 203.5 -37.3 204.5 -38.3 L 204.5 -38.3 L 204.5 -38.3 Q 205.5 -39.2 205.5 -40.9 L 205.5 -40.9 L 205.5 -40.9 Q 205.5 -44.2 200 -47.6 L 200 -47.6 L 200 -47.6 Q 195.5 -50.6 194.5 -51.7 L 194.5 -51.7 L 194.5 -51.7 Q 192.8 -53.8 192.8 -56.3 L 192.8 -56.3 L 192.8 -56.3 Q 192.8 -58.9 194 -61.3 L 194 -61.3 L 194 -61.3 Q 195.2 -63.7 197.5 -65.5 L 197.5 -65.5 L 197.5 -65.5 Q 202.1 -69.1 210.3 -69.1 L 210.3 -69.1 L 210.3 -69.1 Q 214.4 -69.1 216.9 -67.4 L 216.9 -67.4 L 216.9 -67.4 Q 219.3 -65.7 219.3 -62.9 L 219.3 -62.9 L 219.3 -62.9 Q 219.3 -60.1 217.6 -58.5 L 217.6 -58.5 L 217.6 -58.5 Q 216 -56.9 212.9 -56.9 L 212.9 -56.9 L 212.9 -56.9 Q 210.8 -56.9 209.7 -57.6 Z M 260.8 -55.7 L 273.7 -56.9 L 273.7 -56.9 Q 269.1 -46.8 269.1 -35.1 L 269.1 -35.1 L 269.1 -35.1 Q 267.4 -33.9 264.9 -33.9 L 264.9 -33.9 L 264.9 -33.9 Q 262.4 -33.9 260.8 -35 L 260.8 -35 L 260.8 -35 Q 259.2 -36.2 258.8 -37.4 L 258.8 -37.4 L 258.8 -37.4 Q 257.2 -35.8 254.6 -34.8 L 254.6 -34.8 L 254.6 -34.8 Q 252 -33.9 249.3 -33.9 L 249.3 -33.9 L 249.3 -33.9 Q 246.5 -33.9 244.1 -34.8 L 244.1 -34.8 L 244.1 -34.8 Q 241.7 -35.6 239.9 -37.6 L 239.9 -37.6 L 239.9 -37.6 Q 235.8 -42 235.8 -50.2 L 235.8 -50.2 L 235.8 -50.2 Q 235.8 -63 242.6 -70.7 L 242.6 -70.7 L 242.6 -70.7 Q 249.7 -78.7 262.2 -78.7 L 262.2 -78.7 L 262.2 -78.7 Q 270.8 -78.7 273.9 -74.2 L 273.9 -74.2 L 273.9 -74.2 Q 274.8 -72.8 274.8 -71.1 L 274.8 -71.1 L 274.8 -71.1 Q 274.8 -69.4 274.1 -67.9 L 274.1 -67.9 L 274.1 -67.9 Q 273.4 -66.5 272.2 -65.3 L 272.2 -65.3 L 272.2 -65.3 Q 269.5 -62.8 266.1 -62.8 L 266.1 -62.8 L 266.1 -62.8 Q 264.7 -62.8 263.4 -63.2 L 263.4 -63.2 L 263.4 -63.2 Q 263.7 -65.2 263.7 -67.4 L 263.7 -67.4 L 263.7 -67.4 Q 263.7 -69.6 263.5 -70.7 L 263.5 -70.7 L 263.5 -70.7 Q 263.4 -71.7 263 -72.5 L 263 -72.5 L 263 -72.5 Q 262.2 -74.2 260.3 -74.2 L 260.3 -74.2 L 260.3 -74.2 Q 258.5 -74.2 256.5 -72.3 L 256.5 -72.3 L 256.5 -72.3 Q 254.5 -70.3 252.9 -67.1 L 252.9 -67.1 L 252.9 -67.1 Q 249.4 -60 249.4 -51.3 L 249.4 -51.3 L 249.4 -51.3 Q 249.4 -47.4 250.9 -44.5 L 250.9 -44.5 L 250.9 -44.5 Q 252.6 -41.5 255.5 -41.5 L 255.5 -41.5 L 255.5 -41.5 Q 256.5 -41.5 257.5 -42 L 257.5 -42 L 257.5 -42 Q 258.4 -42.5 258.8 -42.9 L 258.8 -42.9 L 260.8 -55.7 Z M 279.7 -37.1 L 279.7 -37.1 L 279.7 -37.1 Q 278.2 -38.7 277.5 -41.3 L 277.5 -41.3 L 277.5 -41.3 Q 276.8 -44 276.8 -48.3 L 276.8 -48.3 L 276.8 -48.3 Q 276.8 -52.5 278.3 -56.4 L 278.3 -56.4 L 278.3 -56.4 Q 279.8 -60.4 282.4 -63.2 L 282.4 -63.2 L 282.4 -63.2 Q 288 -69.1 297 -69.1 L 297 -69.1 L 297 -69.1 Q 300.3 -69.1 302.7 -68 L 302.7 -68 L 313.6 -69.1 L 308.9 -44.1 L 308.9 -44.1 Q 308.7 -43.3 308.7 -41.9 L 308.7 -41.9 L 308.7 -41.9 Q 308.7 -40.5 309.6 -39.6 L 309.6 -39.6 L 309.6 -39.6 Q 310.4 -38.7 311.7 -38.6 L 311.7 -38.6 L 311.7 -38.6 Q 311.1 -36.4 308.7 -35.1 L 308.7 -35.1 L 308.7 -35.1 Q 306.4 -33.9 303.8 -33.9 L 303.8 -33.9 L 303.8 -33.9 Q 301.1 -33.9 299.4 -34.8 L 299.4 -34.8 L 299.4 -34.8 Q 297.6 -35.8 297.1 -37.5 L 297.1 -37.5 L 297.1 -37.5 Q 296.1 -35.9 293.9 -34.9 L 293.9 -34.9 L 293.9 -34.9 Q 291.7 -33.9 288.8 -33.9 L 288.8 -33.9 L 288.8 -33.9 Q 285.9 -33.9 283.5 -34.6 L 283.5 -34.6 L 283.5 -34.6 Q 281.2 -35.4 279.7 -37.1 Z M 293.2 -63 L 293.2 -63 L 293.2 -63 Q 292.4 -61.9 291.8 -59.9 L 291.8 -59.9 L 291.8 -59.9 Q 291.2 -58 290.1 -52.8 L 290.1 -52.8 L 290.1 -52.8 Q 289 -47.6 289 -43.8 L 289 -43.8 L 289 -43.8 Q 289 -40.1 289.6 -39 L 289.6 -39 L 289.6 -39 Q 290.2 -38 291.2 -38 L 291.2 -38 L 291.2 -38 Q 293.3 -38 294.8 -39.9 L 294.8 -39.9 L 294.8 -39.9 Q 296.3 -41.9 296.8 -45.3 L 296.8 -45.3 L 300.2 -64.1 L 300.2 -64.1 Q 298.9 -65.2 297.3 -65.2 L 297.3 -65.2 L 297.3 -65.2 Q 295.8 -65.2 294.8 -64.7 L 294.8 -64.7 L 294.8 -64.7 Q 293.9 -64.2 293.2 -63 Z M 332.4 -38.7 L 332.4 -38.7 L 332.4 -38.7 Q 330.4 -33.9 324 -33.9 L 324 -33.9 L 324 -33.9 Q 320.8 -33.9 318.8 -36.1 L 318.8 -36.1 L 318.8 -36.1 Q 317.1 -38 317.1 -40.1 L 317.1 -40.1 L 317.1 -40.1 Q 317.1 -44.9 319.4 -55.4 L 319.4 -55.4 L 324 -79.9 L 337 -81.2 L 330.8 -48.8 L 330.8 -48.8 Q 329.7 -44.1 329.7 -42.4 L 329.7 -42.4 L 329.7 -42.4 Q 329.7 -38.8 332.4 -38.7 Z M 353.1 -38.7 L 353.1 -38.7 L 353.1 -38.7 Q 351.1 -33.9 344.8 -33.9 L 344.8 -33.9 L 344.8 -33.9 Q 341.6 -33.9 339.5 -36.1 L 339.5 -36.1 L 339.5 -36.1 Q 337.9 -38 337.9 -40.1 L 337.9 -40.1 L 337.9 -40.1 Q 337.9 -44.9 340.1 -55.4 L 340.1 -55.4 L 344.8 -79.9 L 357.8 -81.2 L 351.6 -48.8 L 351.6 -48.8 Q 350.5 -44.1 350.5 -42.4 L 350.5 -42.4 L 350.5 -42.4 Q 350.5 -38.8 353.1 -38.7 Z M 384.5 -46 L 384.5 -46 L 384.5 -46 Q 386.1 -44.9 386.1 -42.5 L 386.1 -42.5 L 386.1 -42.5 Q 386.1 -40.1 384.8 -38.5 L 384.8 -38.5 L 384.8 -38.5 Q 383.6 -37 381.6 -36 L 381.6 -36 L 381.6 -36 Q 377.6 -33.9 373.1 -33.9 L 373.1 -33.9 L 373.1 -33.9 Q 368.7 -33.9 366.1 -34.8 L 366.1 -34.8 L 366.1 -34.8 Q 363.5 -35.8 361.8 -37.6 L 361.8 -37.6 L 361.8 -37.6 Q 358.4 -41 358.4 -47.2 L 358.4 -47.2 L 358.4 -47.2 Q 358.4 -56.8 363.7 -62.7 L 363.7 -62.7 L 363.7 -62.7 Q 369.3 -69.1 379.1 -69.1 L 379.1 -69.1 L 379.1 -69.1 Q 385.2 -69.1 388.2 -66.5 L 388.2 -66.5 L 388.2 -66.5 Q 390.4 -64.6 390.4 -61.4 L 390.4 -61.4 L 390.4 -61.4 Q 390.4 -50.2 371 -50.2 L 371 -50.2 L 371 -50.2 Q 370.7 -48.5 370.7 -47.1 L 370.7 -47.1 L 370.7 -47.1 Q 370.7 -44.2 372 -43 L 372 -43 L 372 -43 Q 373.3 -41.9 375.8 -41.9 L 375.8 -41.9 L 375.8 -41.9 Q 378.2 -41.9 380.8 -43 L 380.8 -43 L 380.8 -43 Q 383.4 -44.2 384.5 -46 Z M 371.4 -52.9 L 371.4 -52.9 L 371.4 -52.9 Q 376 -52.9 378.6 -55.7 L 378.6 -55.7 L 378.6 -55.7 Q 381.2 -58.4 381.2 -62.7 L 381.2 -62.7 L 381.2 -62.7 Q 381.2 -64.2 380.7 -65 L 380.7 -65 L 380.7 -65 Q 380.1 -65.8 379 -65.8 L 379 -65.8 L 379 -65.8 Q 377.9 -65.8 377 -65.4 L 377 -65.4 L 377 -65.4 Q 376.1 -65 375.1 -63.6 L 375.1 -63.6 L 375.1 -63.6 Q 372.8 -60.4 371.4 -52.9 Z M 412.6 -53.1 L 412.6 -53.1 L 412.6 -53.1 Q 414.9 -57.2 414.9 -61.4 L 414.9 -61.4 L 414.9 -61.4 Q 414.9 -64.1 412.9 -64.1 L 412.9 -64.1 L 412.9 -64.1 Q 411.4 -64.1 409.8 -61.5 L 409.8 -61.5 L 409.8 -61.5 Q 408.1 -58.9 407.6 -55.5 L 407.6 -55.5 L 404.3 -35.1 L 391.1 -33.9 L 397.6 -67.8 L 408.1 -69.1 L 407 -62.6 L 407 -62.6 Q 410.1 -69.1 417.2 -69.1 L 417.2 -69.1 L 417.2 -69.1 Q 420.9 -69.1 422.9 -67.1 L 422.9 -67.1 L 422.9 -67.1 Q 424.9 -65.2 424.9 -61.3 L 424.9 -61.3 L 424.9 -61.3 Q 424.9 -57.3 422.3 -54.8 L 422.3 -54.8 L 422.3 -54.8 Q 419.7 -52.4 415.3 -52.4 L 415.3 -52.4 L 415.3 -52.4 Q 413.4 -52.4 412.6 -53.1 Z M 446.3 -42.4 L 446.3 -42.4 L 446.3 -42.4 Q 443 -38.9 436.9 -38.9 L 436.9 -38.9 L 436.9 -38.9 Q 429.3 -38.9 427.7 -44.5 L 427.7 -44.5 L 427.7 -44.5 Q 427.2 -46.1 427.2 -48 L 427.2 -48 L 427.2 -48 Q 427.2 -49.9 427.5 -51.8 L 427.5 -51.8 L 430.5 -67.8 L 443.5 -69.1 L 440 -50.4 L 440 -50.4 Q 439.9 -49.6 439.7 -48.7 L 439.7 -48.7 L 439.7 -48.7 Q 439.5 -47.8 439.5 -46.9 L 439.5 -46.9 L 439.5 -46.9 Q 439.5 -46 439.8 -45.3 L 439.8 -45.3 L 439.8 -45.3 Q 440.1 -44.7 440.6 -44.4 L 440.6 -44.4 L 440.6 -44.4 Q 441.4 -43.8 442.7 -43.8 L 442.7 -43.8 L 442.7 -43.8 Q 444.1 -43.8 445.3 -45.5 L 445.3 -45.5 L 445.3 -45.5 Q 446.5 -47.2 447.1 -50 L 447.1 -50 L 450.6 -67.8 L 463.2 -69.1 L 458.4 -43.9 L 458.4 -43.9 Q 456 -31.6 451.2 -26.8 L 451.2 -26.8 L 451.2 -26.8 Q 448.7 -24.3 445.4 -23.3 L 445.4 -23.3 L 445.4 -23.3 Q 442.2 -22.3 438 -22.3 L 438 -22.3 L 438 -22.3 Q 431.3 -22.3 427.5 -24.4 L 427.5 -24.4 L 427.5 -24.4 Q 423.6 -26.5 423.6 -30 L 423.6 -30 L 423.6 -30 Q 423.6 -32.6 425.6 -34.1 L 425.6 -34.1 L 425.6 -34.1 Q 427.6 -35.6 430.7 -35.6 L 430.7 -35.6 L 430.7 -35.6 Q 433.4 -35.6 435.4 -34.5 L 435.4 -34.5 L 435.4 -34.5 Q 436.6 -33.8 437.2 -32.9 L 437.2 -32.9 L 437.2 -32.9 Q 435.7 -31.6 435.7 -29.5 L 435.7 -29.5 L 435.7 -29.5 Q 435.7 -26.7 438.3 -26.7 L 438.3 -26.7 L 438.3 -26.7 Q 442.5 -26.7 444.9 -36.4 L 444.9 -36.4 L 444.9 -36.4 Q 445.6 -39.3 446.3 -42.4 Z" fill="url(#editing-gradient-gradient)"></path></g></g><style>text {
  font-size: 64px;
  font-family: Arial Black;
  dominant-baseline: central;
  text-anchor: middle;
}</style>
    <rect x="261" y="59" width="0" height="0" fill="rgb(255, 255, 255)"/></svg>